<?xml version="1.0" encoding="utf-8"?>
<!-- Generator: Adobe Illustrator 24.3.0, SVG Export Plug-In . SVG Version: 6.00 Build 0)  -->
<svg version="1.1" id="Steering_Wheel" xmlns="http://www.w3.org/2000/svg" xmlns:xlink="http://www.w3.org/1999/xlink" x="0px"
	 y="0px" width="460.6px" height="461.4px" viewBox="0 0 460.6 461.4" enable-background="new 0 0 460.6 461.4"
	 xml:space="preserve">
<path id="Front" fill="#353535" d="M231.6,455C105.7,454.7,16.3,355.6,8.2,250.7C3,183.1,23.1,123.6,70.2,74.8
	c44.2-45.8,99-68.6,162.9-68.4c122.3,0.4,224,99.9,222.8,226.7C454.7,355.4,356.8,454.6,231.6,455z M400.9,190.3
	c6.2,0,10.2-5.3,8.7-10.7c-1.3-4.6-2.8-9.3-4.7-13.7c-3.9-9-7.7-18.1-12.3-26.7c-6.5-12-14.8-22.8-24-32.9
	c-15-16.4-31.9-30.4-51.9-40.1c-9.2-4.5-18.9-8.2-28.5-11.7c-6.3-2.3-12.9-4.1-19.4-5.5c-15.9-3.5-32.1-4.2-48.4-3.3
	c-10.5,0.6-20.8,1.8-30.8,4.8c-6.9,2-14.1,3.4-20.8,6.1c-9.6,3.8-19,8-28.1,12.8c-11.7,6.2-22.3,14.1-32.2,23
	c-11.4,10.4-21.7,21.6-30.3,34.4c-8.1,12-14.8,24.9-19.9,38.4c-1.9,4.9-3.4,10-4.9,15.1c-1,3.2,0.5,6,2.8,8c2.3,2,5.1,2.6,8.1,1.4
	c3.1-1.3,6.2-2.6,9.4-3.7c10.3-3.7,20.4-7.6,30.8-10.8c16.2-4.9,32.6-9.1,49.4-11.5c15-2.1,30-4.3,45.1-5.5
	c26.7-2.1,53.3-1.5,79.9,1.2c22.5,2.3,44.6,6.4,66.4,12.1c17.9,4.7,35.5,10.6,52.5,17.9C399.2,190,400.4,190.2,400.9,190.3z
	 M401.8,260.4c-9.9,0.8-19.6,2.9-29.2,5.6c-12,3.4-23.4,8.4-34.2,14.5c-15.4,8.8-28.5,20.4-39.7,34.2
	c-10.8,13.3-18.4,28.3-23.7,44.4c-4.3,13.2-6.5,26.8-7.6,40.6c-0.5,7,3.2,11.1,10.1,10c5.5-0.9,10.9-2.5,16.1-4.6
	c8.3-3.3,16.5-6.9,24.5-11c17.8-9.1,33.2-21.3,47.1-35.7c11.5-12,21.2-25.1,29.1-39.7c5-9.3,9.5-18.9,12.5-29.1
	c1.7-5.6,3.5-11.2,5.1-16.9c0.8-2.9,1.3-5.8-0.7-8.9C408.8,260.3,405.5,260.3,401.8,260.4z M196,399.1c-0.2-0.1-0.4-0.1-0.6-0.2
	c-0.1-2,0-4.1-0.4-6.1c-1.7-9.3-3.1-18.7-5.5-27.8c-2.1-7.9-4.9-15.6-8.2-23.1c-5.5-12.4-13.1-23.6-22.3-33.6
	c-8.8-9.5-18.4-17.9-29.3-24.8c-15.7-9.9-32.6-16.7-50.7-20.4c-6.8-1.4-13.8-2-20.7-2.5c-4.7-0.3-8.6,4.7-7.6,9.2
	c0.5,2.5,1,5.1,1.8,7.6c3.5,10.1,6.8,20.3,10.9,30.1c8.2,19.7,20.5,36.9,35.4,52.1c13,13.3,27.5,24.7,44,33.5
	c12.7,6.8,26,12.1,39.8,16.1c1.8,0.5,3.9,0.9,5.7,0.5c1.9-0.4,4.3-1.3,5.3-2.8C194.9,404.7,195.2,401.7,196,399.1z M275.4,232.2
	c0.1-24.6-19.1-44.2-43.6-44.4c-24-0.2-44,19.6-44.2,43.7c-0.1,24,19.5,44.1,43.3,44.3C255.4,276,275.3,256.5,275.4,232.2z"/>
<path id="Left" display="none" fill="#353535" d="M388.8,389.3c-89.2,88.8-222.6,82-302.4,13.6C34.9,358.8,7.1,302.5,5.9,234.6
	C4.8,171,27.5,116.1,72.8,71.1c86.7-86.2,229-87.8,317.8,2.8C476.1,161.2,477.1,300.6,388.8,389.3z M321.4,82.5
	c4.4-4.4,3.5-11-1.4-13.7c-4.2-2.3-8.5-4.6-13-6.4c-9.1-3.6-18.2-7.4-27.6-10.2c-13.1-3.9-26.6-5.6-40.2-6.3
	c-22.2-1-44,1.1-65.1,8.4c-9.7,3.4-19.1,7.6-28.5,11.9c-6.1,2.8-12,6.2-17.6,9.9c-13.7,8.8-25.6,19.8-36.5,31.9
	c-7,7.8-13.4,15.9-18.4,25.2c-3.4,6.3-7.5,12.4-10.4,19c-4.1,9.4-7.8,19.1-10.8,28.9c-3.9,12.7-5.9,25.7-6.5,39
	c-0.7,15.4,0,30.6,2.9,45.8c2.7,14.3,7.1,28,13.1,41.3c2.2,4.8,4.7,9.5,7.2,14.1c1.6,3,4.5,3.9,7.7,3.7c3.1-0.2,5.5-1.7,6.8-4.7
	c1.3-3.1,2.6-6.2,4-9.3c4.7-9.8,9.1-19.8,14.2-29.4c8-14.9,16.6-29.5,26.8-43c9.1-12.1,18.2-24.3,28-35.8
	c17.3-20.4,36.6-38.8,57.4-55.7c17.5-14.2,36-27,55.5-38.4c16-9.3,32.6-17.6,49.8-24.5C320,83.5,321,82.7,321.4,82.5z M371.6,131.4
	c-6.5,7.6-11.8,15.9-16.7,24.6c-6.1,10.9-10.6,22.4-13.9,34.4c-4.7,17.1-5.7,34.6-3.8,52.3c1.8,17.1,7,33,14.7,48.2
	c6.3,12.4,14.3,23.5,23.4,34.1c4.6,5.3,10.1,5.6,14.2-0.1c3.2-4.5,5.9-9.5,8.1-14.6c3.5-8.2,6.8-16.6,9.5-25c6.2-19,8.5-38.5,8-58.5
	c-0.3-16.6-2.7-32.8-7.5-48.6c-3.1-10.2-6.7-20.1-11.8-29.4c-2.8-5.2-5.4-10.4-8.3-15.5c-1.5-2.6-3.2-5.1-6.8-5.8
	C376.4,126.3,374.1,128.7,371.6,131.4z M324.1,375c-0.2,0.1-0.4,0.2-0.6,0.3c-1.5-1.3-2.9-2.9-4.6-4c-7.8-5.3-15.4-11-23.6-15.7
	c-7-4.1-14.5-7.6-22.1-10.5c-12.7-4.9-25.9-7.4-39.5-7.9c-12.9-0.5-25.6,0.3-38.3,3.2c-18.1,4.1-34.9,11.2-50.3,21.4
	c-5.8,3.8-11.2,8.3-16.4,12.8c-3.6,3.1-2.7,9.4,1.1,11.9c2.2,1.4,4.3,2.9,6.6,4.1c9.6,4.6,19.2,9.5,29,13.6
	c19.8,8.1,40.6,11.6,61.9,11.9c18.6,0.3,36.9-2,54.8-7.4c13.8-4.1,27-9.8,39.6-16.8c1.7-0.9,3.4-2.1,4.4-3.7c1.1-1.6,2.1-4,1.7-5.7
	C327.3,379.7,325.5,377.4,324.1,375z M262.3,200.8c-17.3-17.5-44.8-17.8-62.3-0.6c-17.1,16.8-17.3,45-0.3,62.1
	c16.9,17.1,45,17.4,62,0.7C279.1,245.9,279.4,218.1,262.3,200.8z"/>
<path id="Right" display="none" fill="#353535" d="M71.7,389.3c-88.8-89.2-82-222.6-13.6-302.4C102.2,35.4,158.5,7.5,226.4,6.3
	C290,5.2,344.9,27.9,389.9,73.2c86.2,86.7,87.8,229-2.8,317.8C299.8,476.6,160.4,477.6,71.7,389.3z M378.5,321.9
	c4.4,4.4,11,3.5,13.7-1.4c2.3-4.2,4.6-8.5,6.4-13c3.6-9.1,7.4-18.2,10.2-27.6c3.9-13.1,5.6-26.6,6.3-40.2c1-22.2-1.1-44-8.4-65.1
	c-3.4-9.7-7.6-19.1-11.9-28.5c-2.8-6.1-6.2-12-9.9-17.6c-8.8-13.7-19.8-25.6-31.9-36.5c-7.8-7-15.9-13.4-25.2-18.4
	c-6.3-3.4-12.4-7.5-19-10.4c-9.4-4.1-19.1-7.8-28.9-10.8c-12.7-3.9-25.7-5.9-39-6.5c-15.4-0.7-30.6,0-45.8,2.9
	c-14.3,2.7-28,7.1-41.3,13.1c-4.8,2.2-9.5,4.7-14.1,7.2c-3,1.6-3.9,4.5-3.7,7.7c0.2,3.1,1.7,5.5,4.7,6.8c3.1,1.3,6.2,2.6,9.3,4
	c9.8,4.7,19.8,9.1,29.4,14.2c14.9,8,29.5,16.6,43,26.8c12.1,9.1,24.3,18.2,35.8,28c20.4,17.3,38.8,36.6,55.7,57.4
	c14.2,17.5,27,36,38.4,55.5c9.3,16,17.6,32.6,24.5,49.8C377.5,320.4,378.3,321.4,378.5,321.9z M329.6,372.1
	c-7.6-6.5-15.9-11.8-24.6-16.7c-10.9-6.1-22.4-10.6-34.4-13.9c-17.1-4.7-34.6-5.7-52.3-3.8c-17.1,1.8-33,7-48.2,14.7
	c-12.4,6.3-23.5,14.3-34.1,23.4c-5.3,4.6-5.6,10.1,0.1,14.2c4.5,3.2,9.5,5.9,14.6,8.1c8.2,3.5,16.6,6.8,25,9.5
	c19,6.2,38.5,8.5,58.5,8c16.6-0.3,32.8-2.7,48.6-7.5c10.2-3.1,20.1-6.7,29.4-11.8c5.2-2.8,10.4-5.4,15.5-8.3
	c2.6-1.5,5.1-3.2,5.8-6.8C334.7,376.9,332.3,374.5,329.6,372.1z M86,324.5c-0.1-0.2-0.2-0.4-0.3-0.6c1.3-1.5,2.9-2.9,4-4.6
	c5.3-7.8,11-15.4,15.7-23.6c4.1-7,7.6-14.5,10.5-22.1c4.9-12.7,7.4-25.9,7.9-39.5c0.5-12.9-0.3-25.6-3.2-38.3
	c-4.1-18.1-11.2-34.9-21.4-50.3c-3.8-5.8-8.3-11.2-12.8-16.4c-3.1-3.6-9.4-2.7-11.9,1.1c-1.4,2.2-2.9,4.3-4.1,6.6
	c-4.6,9.6-9.5,19.2-13.6,29c-8.1,19.8-11.6,40.6-11.9,61.9c-0.3,18.6,2,36.9,7.4,54.8c4.1,13.8,9.8,27,16.8,39.6
	c0.9,1.7,2.1,3.4,3.7,4.4c1.6,1.1,4,2.1,5.7,1.7C81.3,327.8,83.6,325.9,86,324.5z M260.2,262.7c17.5-17.3,17.8-44.8,0.6-62.3
	c-16.8-17.1-45-17.3-62.1-0.3c-17.1,16.9-17.4,45-0.7,62C215.1,279.5,242.9,279.8,260.2,262.7z"/>
<path id="Center" fill="#353535" d="M207.6,253.3c-12-11.9-12-31.9,0-43.8c11.9-11.8,31.3-12.6,43.9,0c12.3,12.3,12.2,31.5-0.1,43.8
	C239.3,265.4,219.7,265.4,207.6,253.3z"/>
</svg>
